<svg viewBox="0 0 320 160" xmlns="http://www.w3.org/2000/svg">
  <!--
    Cursive "Goat" wordmark — traced to approximate the flowing script style.
    Color: #E11919 (Blood Red)
  -->
  <path fill="#E11919" d="
    M 42,28
    C 32,22 18,26 12,38
    C 4,52 6,72 14,84
    C 24,100 44,106 60,100
    C 72,96 80,86 82,74
    C 84,62 78,52 68,50
    C 58,48 48,56 46,66
    C 44,76 50,84 60,84
    C 68,84 74,78 74,70
    C 74,64 70,60 64,62
    C 60,64 58,68 60,72

    M 62,70
    C 60,70 59,68 61,66
    C 63,64 67,66 67,70
    C 67,76 61,80 55,78
    C 47,74 44,66 47,58
    C 50,50 60,46 68,50
    C 78,56 82,70 76,82
    C 70,96 54,104 40,100
    C 24,94 14,78 16,60
    C 18,42 32,26 50,26
    C 62,26 74,34 78,46

    M 78,46
    C 80,38 78,28 74,22
    C 68,14 58,12 50,16
    C 44,20 40,26 40,32

    M 30,26
    C 28,20 34,14 40,16

    M 40,32
    C 36,40 38,52 44,56
  " stroke="none"/>

  <!-- "G" letter -->
  <path fill="#E11919" stroke="#E11919" stroke-width="0.3" d="
    M 52,90
    C 36,86 22,72 20,56
    C 18,38 30,20 48,16
    C 64,12 80,22 84,38
    L 80,40
    C 76,26 62,18 48,22
    C 34,26 24,42 26,58
    C 28,72 42,84 56,84
    C 68,84 78,76 80,64
    L 64,64
    L 64,56
    L 88,56
    C 88,76 72,94 52,90
    Z
  "/>

  <!-- "o" letter -->
  <path fill="#E11919" d="
    M 108,42
    C 96,42 86,52 86,64
    C 86,78 96,88 108,88
    C 122,88 132,78 132,64
    C 132,50 122,42 108,42
    Z
    M 108,50
    C 118,50 124,56 124,64
    C 124,74 118,80 108,80
    C 98,80 94,74 94,64
    C 94,56 100,50 108,50
    Z
  "/>

  <!-- "a" letter -->
  <path fill="#E11919" d="
    M 158,88
    L 150,88
    L 150,82
    C 146,86 140,90 134,90
    C 122,90 114,80 114,68
    C 114,54 124,42 136,42
    C 144,42 150,48 152,54
    L 152,44
    L 158,44
    Z
    M 136,50
    C 128,50 122,58 122,68
    C 122,76 128,82 136,82
    C 144,82 150,76 150,66
    C 150,58 144,50 136,50
    Z
  "/>

  <!-- "t" letter with the tall descending stroke -->
  <path fill="#E11919" d="
    M 172,10
    L 180,8
    L 180,44
    L 196,44
    L 196,52
    L 180,52
    L 180,78
    C 180,84 182,86 188,86
    L 196,86
    L 196,94
    L 186,94
    C 174,94 172,86 172,78
    L 172,52
    L 162,52
    L 162,44
    L 172,44
    Z
  "/>

  <!-- Flowing tail/swash from the t -->
  <path fill="none" stroke="#E11919" stroke-width="6" stroke-linecap="round" d="
    M 196,86
    C 210,90 224,84 228,70
  "/>
</svg>
